<mxfile host="app.diagrams.net" modified="2022-04-28T12:38:03.184Z" agent="5.0 (Windows NT 10.0; Win64; x64) AppleWebKit/537.36 (KHTML, like Gecko) Chrome/100.0.4896.127 Safari/537.36 Edg/100.0.1185.50" etag="sDfvVk39HgFwjRgsW0kM" version="17.4.6" type="github">
  <diagram id="weSLRWDzrqAeJKT9qMYH" name="Page-1">
    <mxGraphModel dx="1038" dy="579" grid="1" gridSize="10" guides="1" tooltips="1" connect="1" arrows="1" fold="1" page="1" pageScale="1" pageWidth="850" pageHeight="1100" math="0" shadow="0">
      <root>
        <mxCell id="0" />
        <mxCell id="1" parent="0" />
        <mxCell id="8d95LYzuLx3IlOttUlmi-4" value="" style="edgeStyle=orthogonalEdgeStyle;rounded=0;orthogonalLoop=1;jettySize=auto;html=1;" edge="1" parent="1" source="8d95LYzuLx3IlOttUlmi-2" target="8d95LYzuLx3IlOttUlmi-3">
          <mxGeometry relative="1" as="geometry" />
        </mxCell>
        <mxCell id="8d95LYzuLx3IlOttUlmi-2" value="start" style="rounded=1;whiteSpace=wrap;html=1;" vertex="1" parent="1">
          <mxGeometry x="210" y="30" width="90" height="20" as="geometry" />
        </mxCell>
        <mxCell id="8d95LYzuLx3IlOttUlmi-7" value="yes" style="edgeStyle=orthogonalEdgeStyle;rounded=0;orthogonalLoop=1;jettySize=auto;html=1;" edge="1" parent="1" source="8d95LYzuLx3IlOttUlmi-3" target="8d95LYzuLx3IlOttUlmi-6">
          <mxGeometry relative="1" as="geometry" />
        </mxCell>
        <mxCell id="8d95LYzuLx3IlOttUlmi-11" value="NO" style="edgeStyle=orthogonalEdgeStyle;rounded=0;orthogonalLoop=1;jettySize=auto;html=1;" edge="1" parent="1" source="8d95LYzuLx3IlOttUlmi-3" target="8d95LYzuLx3IlOttUlmi-10">
          <mxGeometry relative="1" as="geometry" />
        </mxCell>
        <mxCell id="8d95LYzuLx3IlOttUlmi-3" value="IF rest agent not undefined" style="rhombus;whiteSpace=wrap;html=1;" vertex="1" parent="1">
          <mxGeometry x="215" y="90" width="80" height="80" as="geometry" />
        </mxCell>
        <mxCell id="8d95LYzuLx3IlOttUlmi-15" value="" style="edgeStyle=orthogonalEdgeStyle;rounded=0;orthogonalLoop=1;jettySize=auto;html=1;" edge="1" parent="1" source="8d95LYzuLx3IlOttUlmi-6" target="8d95LYzuLx3IlOttUlmi-14">
          <mxGeometry relative="1" as="geometry" />
        </mxCell>
        <mxCell id="8d95LYzuLx3IlOttUlmi-6" value="get the agent id&amp;nbsp;" style="whiteSpace=wrap;html=1;" vertex="1" parent="1">
          <mxGeometry x="195" y="210" width="120" height="60" as="geometry" />
        </mxCell>
        <mxCell id="8d95LYzuLx3IlOttUlmi-13" value="" style="edgeStyle=orthogonalEdgeStyle;rounded=0;orthogonalLoop=1;jettySize=auto;html=1;" edge="1" parent="1" source="8d95LYzuLx3IlOttUlmi-10" target="8d95LYzuLx3IlOttUlmi-12">
          <mxGeometry relative="1" as="geometry" />
        </mxCell>
        <mxCell id="8d95LYzuLx3IlOttUlmi-10" value="ELSE" style="rhombus;whiteSpace=wrap;html=1;" vertex="1" parent="1">
          <mxGeometry x="375" y="90" width="80" height="80" as="geometry" />
        </mxCell>
        <mxCell id="8d95LYzuLx3IlOttUlmi-12" value="call rvo addAgent and get the id" style="rounded=1;whiteSpace=wrap;html=1;fillColor=#ffcc99;strokeColor=#36393d;" vertex="1" parent="1">
          <mxGeometry x="490" y="100" width="120" height="60" as="geometry" />
        </mxCell>
        <mxCell id="8d95LYzuLx3IlOttUlmi-19" value="yes" style="edgeStyle=orthogonalEdgeStyle;rounded=0;orthogonalLoop=1;jettySize=auto;html=1;" edge="1" parent="1" source="8d95LYzuLx3IlOttUlmi-14" target="8d95LYzuLx3IlOttUlmi-18">
          <mxGeometry relative="1" as="geometry" />
        </mxCell>
        <mxCell id="8d95LYzuLx3IlOttUlmi-21" value="" style="edgeStyle=orthogonalEdgeStyle;rounded=0;orthogonalLoop=1;jettySize=auto;html=1;" edge="1" parent="1" source="8d95LYzuLx3IlOttUlmi-14" target="8d95LYzuLx3IlOttUlmi-20">
          <mxGeometry relative="1" as="geometry" />
        </mxCell>
        <mxCell id="8d95LYzuLx3IlOttUlmi-14" value="IF agent is turck" style="rhombus;whiteSpace=wrap;html=1;" vertex="1" parent="1">
          <mxGeometry x="215" y="320" width="80" height="80" as="geometry" />
        </mxCell>
        <mxCell id="8d95LYzuLx3IlOttUlmi-18" value="call FoodtruckINstance" style="rounded=1;whiteSpace=wrap;html=1;fillColor=#f8cecc;gradientColor=#ea6b66;strokeColor=#b85450;" vertex="1" parent="1">
          <mxGeometry x="350" y="330" width="120" height="60" as="geometry" />
        </mxCell>
        <mxCell id="8d95LYzuLx3IlOttUlmi-23" value="" style="edgeStyle=orthogonalEdgeStyle;rounded=0;orthogonalLoop=1;jettySize=auto;html=1;" edge="1" parent="1" source="8d95LYzuLx3IlOttUlmi-20" target="8d95LYzuLx3IlOttUlmi-22">
          <mxGeometry relative="1" as="geometry" />
        </mxCell>
        <mxCell id="8d95LYzuLx3IlOttUlmi-20" value="ELSE IF agent is tower" style="rhombus;whiteSpace=wrap;html=1;" vertex="1" parent="1">
          <mxGeometry x="215" y="480" width="80" height="80" as="geometry" />
        </mxCell>
        <mxCell id="8d95LYzuLx3IlOttUlmi-22" value="call tower instance" style="rounded=1;whiteSpace=wrap;html=1;fillColor=#f8cecc;gradientColor=#ea6b66;strokeColor=#b85450;" vertex="1" parent="1">
          <mxGeometry x="350" y="490" width="120" height="60" as="geometry" />
        </mxCell>
      </root>
    </mxGraphModel>
  </diagram>
</mxfile>
